<?xml version="1.0" encoding="utf-8"?>
<!-- Generator: Adobe Illustrator 26.5.0, SVG Export Plug-In . SVG Version: 6.00 Build 0)  -->
<svg version="1.1" id="Layer_1" xmlns="http://www.w3.org/2000/svg" xmlns:xlink="http://www.w3.org/1999/xlink" x="0px" y="0px"
	 viewBox="0 0 612 792" style="enable-background:new 0 0 612 792;" xml:space="preserve">
<style type="text/css">
	.st0{fill:#FFFFFF;}
	.st1{fill:#FC5400;}
	.st2{fill:url(#SVGID_1_);}
	.st3{fill:url(#SVGID_00000126297197819532493780000011223022820598133403_);}
	.st4{fill:url(#SVGID_00000016071576129305636820000004242260844396206466_);}
</style>
<path class="st0" d="M144.42,309.94c0.16,9.02-2.31,17.9-7.12,25.53c-7.26,10.53-19.71,15.95-37.01,15.95
	c-14.38,0-25.62-3.71-33.47-11.05c-5.49-5.51-9.3-12.45-10.99-20.04c-0.21-0.84,0.29-1.7,1.13-1.91c0.02,0,0.04-0.01,0.06-0.01
	l29.46-6.09c0.8-0.17,1.6,0.32,1.81,1.11c1.16,5.54,6.01,9.55,11.67,9.64c6.5-0.03,11.75-5.31,11.75-11.81
	c0-6.25-4.85-8.31-22.8-16.06l-1.49-0.65c-8.48-3.49-30.92-12.78-30.92-37.15c0-25.97,22.83-39.99,44.3-39.99
	c6.64-0.01,13.21,1.27,19.36,3.76c5.42,2.36,17.14,8.91,19.44,22.61c0.12,0.81-0.38,1.58-1.16,1.79l-27.35,6.82
	c-0.73,0.18-1.48-0.18-1.79-0.87c-1.53-3.82-5.41-6.17-9.5-5.77c-5.54-0.31-10.28,3.94-10.58,9.48c0,0.03,0,0.05,0,0.08
	c0,5.55,3.41,7.15,25.64,17.38C136.11,282.54,144.42,292.96,144.42,309.94L144.42,309.94z"/>
<path class="st0" d="M182.73,221.59v125.94c0,0.88-0.71,1.6-1.6,1.6c-0.01,0-0.02,0-0.03,0h-29.62c-0.88,0.02-1.61-0.69-1.62-1.57
	c0-0.01,0-0.02,0-0.03V221.59c0-0.9,0.73-1.62,1.62-1.62h29.62C182.01,219.96,182.73,220.69,182.73,221.59z"/>
<path class="st0" d="M277.04,309.94c0.16,9.02-2.31,17.9-7.12,25.53c-7.26,10.61-19.71,16-37.01,16c-14.38,0-25.62-3.71-33.47-11.05
	c-5.49-5.51-9.3-12.45-10.99-20.04c-0.21-0.84,0.29-1.7,1.13-1.91c0.02,0,0.04-0.01,0.06-0.01l29.46-6.09
	c0.8-0.17,1.6,0.32,1.81,1.11c1.16,5.54,6.01,9.55,11.67,9.64c6.5-0.03,11.75-5.31,11.75-11.81c0-6.25-4.85-8.31-22.8-16.06
	l-1.49-0.65c-8.45-3.49-30.92-12.78-30.92-37.15c0-25.97,22.83-39.99,44.3-39.99c6.64-0.01,13.21,1.27,19.36,3.76
	c5.42,2.36,17.14,8.91,19.44,22.61c0.14,0.81-0.37,1.59-1.16,1.79l-27.35,6.82c-0.73,0.18-1.48-0.18-1.79-0.87
	c-1.53-3.82-5.41-6.17-9.5-5.77c-5.54-0.31-10.28,3.94-10.58,9.48c0,0.03,0,0.05,0,0.08c0,5.55,3.41,7.15,25.64,17.38
	C268.76,282.54,277.04,292.96,277.04,309.94L277.04,309.94z"/>
<path class="st0" d="M423.29,349.07h-28.67c-0.81-0.01-1.47-0.63-1.54-1.44l-6.04-65.45c-0.11-0.86-0.89-1.47-1.75-1.37
	c-0.58,0.07-1.08,0.46-1.28,1.02l-21.17,66.12c-0.21,0.65-0.81,1.1-1.49,1.11h-19.58c-0.69,0-1.3-0.45-1.49-1.11l-21.17-66.12
	c-0.27-0.83-1.15-1.28-1.98-1.01c-0.6,0.19-1.03,0.73-1.08,1.36L310,347.63c-0.06,0.81-0.73,1.44-1.54,1.44h-28.65
	c-0.88-0.01-1.59-0.73-1.58-1.62c0-0.05,0-0.1,0.01-0.14l16.25-126.21c0.1-0.78,0.76-1.37,1.54-1.38h33.14
	c0.68,0.01,1.28,0.46,1.49,1.11l19.69,64.01c0.22,0.82,1.07,1.31,1.89,1.08c0.53-0.14,0.94-0.56,1.08-1.08l18.95-63.96
	c0.18-0.67,0.79-1.14,1.49-1.14h33.31c0.79,0,1.46,0.59,1.54,1.38l16.25,126.18c0.1,0.86-0.51,1.64-1.37,1.75
	C423.42,349.06,423.36,349.07,423.29,349.07L423.29,349.07z"/>
<path class="st0" d="M556.86,284.38c0,37.48-29.79,67.94-66.37,67.94s-66.34-30.46-66.34-67.94s29.79-67.91,66.34-67.91
	S556.86,246.93,556.86,284.38z M526.81,284.38c-0.52-20.05-17.2-35.87-37.25-35.35c-20.05,0.52-35.87,17.2-35.35,37.25
	c0.51,19.65,16.57,35.33,36.23,35.36c20.31-0.22,36.59-16.86,36.37-37.17C526.81,284.44,526.81,284.41,526.81,284.38z"/>
<path class="st1" d="M237.29,554.12c0.01,6.66-0.95,13.3-2.84,19.69c-5.12,17.43-17.04,32.06-33.06,40.62
	c-9.37,5.01-19.84,7.62-30.46,7.61c-36.58,0-66.34-30.46-66.34-67.91s29.79-67.94,66.34-67.94c10.62-0.03,21.08,2.57,30.46,7.55
	c8,4.27,15.05,10.11,20.74,17.17c0.76,0.94,0.61,2.32-0.33,3.08c-0.02,0.02-0.05,0.04-0.07,0.06l-21.28,15.89
	c-0.67,0.5-1.62,0.39-2.17-0.24c-6.84-8.01-16.82-12.64-27.35-12.7c-20.5,0.55-36.66,17.62-36.11,38.11
	c0.53,19.72,16.39,35.57,36.11,36.11c11.45,0.01,22.22-5.46,28.95-14.73c0.52-0.67,0.4-1.64-0.27-2.17
	c-0.28-0.22-0.62-0.33-0.98-0.33h-31c-0.9,0-1.62-0.73-1.62-1.62c0-0.01,0-0.02,0-0.03v-24.78c0-0.88,0.71-1.6,1.6-1.6
	c0.01,0,0.02,0,0.03,0h67.56c0.86-0.02,1.58,0.63,1.65,1.49C237.05,549.22,237.3,552.15,237.29,554.12L237.29,554.12z"/>
<path class="st1" d="M337.59,491.03v76.14c0,22.01-5.01,31.57-13.11,39.83c-9.05,9.54-21.79,14.69-34.93,14.13
	c-7.39,0-24.37-1.35-35.96-14.03c-11.18-12.27-13.05-22.23-13.05-39.94v-76.14c0-0.85,0.69-1.54,1.54-1.54l0,0h29.79
	c0.86,0,1.56,0.69,1.57,1.54v76.14c-0.23,4.85,0.47,9.7,2.06,14.3c2.69,5.01,8.08,7.97,13.76,7.55c6.2,0,11.7-2.25,13.54-6.88
	c1.56-4.83,2.19-9.91,1.87-14.97v-76.14c0.03-0.87,0.75-1.55,1.62-1.52c0.01,0,0.02,0,0.03,0h29.79
	C336.92,489.56,337.56,490.22,337.59,491.03L337.59,491.03z"/>
<path class="st1" d="M378.75,490.98v125.8c0,0.9-0.73,1.62-1.62,1.62h-29.65c-0.9,0-1.62-0.73-1.62-1.62V490.87
	c0-0.9,0.73-1.62,1.62-1.62h29.65c0.9,0,1.63,0.72,1.63,1.62C378.75,490.9,378.75,490.94,378.75,490.98L378.75,490.98z"/>
<path class="st1" d="M506.44,618.95h-31.92c-0.85,0-1.6-0.55-1.87-1.35l-6.58-20.42c-0.22-0.65-0.83-1.1-1.52-1.11h-39.64
	c-0.71,0-1.33,0.46-1.54,1.14l-6.8,20.63c-0.22,0.65-0.83,1.1-1.52,1.11h-32.2c-0.9-0.02-1.61-0.77-1.58-1.67
	c0-0.17,0.04-0.34,0.09-0.5l47.47-125.99c0.3-0.78,1.06-1.3,1.9-1.3h28c0.75,0.01,1.41,0.47,1.68,1.16l47.52,126.13
	c0.31,0.82-0.1,1.75-0.92,2.06C506.83,618.91,506.64,618.95,506.44,618.95L506.44,618.95z M456.16,567.5l-9.94-30.14
	c-0.3-0.86-1.25-1.31-2.11-1.01c-0.47,0.17-0.84,0.54-1.01,1.01l-9.96,30.19c-0.27,0.84,0.19,1.74,1.03,2.01
	c0.16,0.05,0.32,0.08,0.48,0.08h19.96c0.9,0,1.63-0.73,1.63-1.62C456.25,567.84,456.22,567.67,456.16,567.5L456.16,567.5z"/>
<linearGradient id="SVGID_1_" gradientUnits="userSpaceOnUse" x1="29.4527" y1="112.2017" x2="487.6559" y2="294.1345" gradientTransform="matrix(1 0 0 -1 0 618.38)">
	<stop  offset="0" style="stop-color:#FFE900"/>
	<stop  offset="0.2" style="stop-color:#FEB500"/>
	<stop  offset="0.4" style="stop-color:#FD8B00"/>
	<stop  offset="0.58" style="stop-color:#FD6D00"/>
	<stop  offset="0.73" style="stop-color:#FC5B00"/>
	<stop  offset="0.83" style="stop-color:#FC5400"/>
</linearGradient>
<path class="st2" d="M275.99,416.19h-10.83l-7.37-33.17c-0.51-2.18-2.7-3.54-4.88-3.02c-1.5,0.35-2.67,1.52-3.02,3.02l-12.73,57.76
	l-11.67-37.91c-0.63-2.12-2.85-3.34-4.98-2.71c-1.08,0.32-1.98,1.08-2.47,2.09l-6.99,13.92h-14.35c-2.24-6.31-9.18-9.61-15.49-7.37
	c-6.31,2.24-9.61,9.18-7.37,15.49c2.24,6.31,9.18,9.61,15.49,7.37c3.44-1.22,6.15-3.93,7.37-7.37h16.87
	c1.53,0.01,2.92-0.86,3.6-2.22l3.57-7.15l13.19,42.86c0.51,1.7,2.07,2.86,3.85,2.87h0.16c1.83-0.08,3.39-1.38,3.79-3.17l12.21-54.94
	l4.14,18.6c0.41,1.84,2.04,3.15,3.93,3.14h14C275.48,421.62,275.47,418.87,275.99,416.19L275.99,416.19z"/>
<linearGradient id="SVGID_00000182489067294620733870000007785629279459339170_" gradientUnits="userSpaceOnUse" x1="38.2522" y1="90.0399" x2="496.4555" y2="271.9727" gradientTransform="matrix(1 0 0 -1 0 618.38)">
	<stop  offset="0" style="stop-color:#FFE900"/>
	<stop  offset="0.2" style="stop-color:#FEB500"/>
	<stop  offset="0.4" style="stop-color:#FD8B00"/>
	<stop  offset="0.58" style="stop-color:#FD6D00"/>
	<stop  offset="0.73" style="stop-color:#FC5B00"/>
	<stop  offset="0.83" style="stop-color:#FC5400"/>
</linearGradient>
<path style="fill:url(#SVGID_00000182489067294620733870000007785629279459339170_);" d="M342.79,416.19h-13.11l-7.37-33.17
	c-0.48-2.18-2.63-3.55-4.81-3.07c-1.53,0.34-2.73,1.54-3.07,3.07l-12.83,57.76l-11.53-37.91c-0.53-1.52-1.91-2.58-3.52-2.71
	c-1.65-0.15-3.22,0.73-3.95,2.22l-6.96,13.92h-12.32c0.35,1.84,0.62,3.71,0.95,5.61c0.13,0.81,0.19,1.64,0.19,2.46h13.67
	c1.53,0.01,2.92-0.86,3.6-2.22l3.57-7.15l13.19,42.86c0.53,1.7,2.09,2.86,3.87,2.87h0.16c1.83-0.08,3.37-1.38,3.76-3.17l12.21-54.94
	l4.14,18.6c0.42,1.84,2.06,3.15,3.95,3.14h16.25C342.25,421.68,342.24,418.89,342.79,416.19L342.79,416.19z"/>
<linearGradient id="SVGID_00000081639509990487502470000001873459493719240876_" gradientUnits="userSpaceOnUse" x1="48.1382" y1="65.1218" x2="506.3685" y2="247.0546" gradientTransform="matrix(1 0 0 -1 0 618.38)">
	<stop  offset="0" style="stop-color:#FFE900"/>
	<stop  offset="0.2" style="stop-color:#FEB500"/>
	<stop  offset="0.4" style="stop-color:#FD8B00"/>
	<stop  offset="0.58" style="stop-color:#FD6D00"/>
	<stop  offset="0.73" style="stop-color:#FC5B00"/>
	<stop  offset="0.83" style="stop-color:#FC5400"/>
</linearGradient>
<path style="fill:url(#SVGID_00000081639509990487502470000001873459493719240876_);" d="M427.32,408.12
	c-5.13,0.03-9.7,3.28-11.4,8.12h-13.54l-7.37-33.17c-0.48-2.18-2.63-3.55-4.81-3.07c-1.53,0.34-2.73,1.54-3.07,3.07l-12.94,57.7
	l-11.64-37.91c-0.54-1.53-1.93-2.59-3.55-2.71c-1.64-0.14-3.2,0.74-3.93,2.22l-6.96,13.92H335.8c0.35,1.84,0.62,3.71,0.95,5.61
	c0.13,0.81,0.19,1.64,0.19,2.46h13.67c1.53,0.01,2.92-0.86,3.6-2.22l3.57-7.15l13.19,42.86c0.51,1.71,2.09,2.87,3.87,2.87h0.16
	c1.83-0.08,3.37-1.38,3.76-3.17l12.21-54.94l4.14,18.6c0.42,1.83,2.05,3.14,3.93,3.14h16.87c2.29,6.28,9.23,9.52,15.52,7.23
	c6.28-2.29,9.52-9.23,7.23-15.52C436.93,411.31,432.4,408.13,427.32,408.12L427.32,408.12z M427.32,424.37
	c-2.23-0.01-4.02-1.83-4.01-4.06c0.01-2.23,1.83-4.02,4.06-4.01c2.22,0.01,4.01,1.82,4.01,4.03c-0.06,2.2-1.86,3.94-4.06,3.93
	V424.37z"/>
<ellipse transform="matrix(0.1602 -0.9871 0.9871 0.1602 -44.8533 321.1354)" class="st1" cx="166.3" cy="186.93" rx="16.44" ry="16.44"/>
</svg>
