<svg enable-background="new 0 0 612 792" viewBox="0 0 612 792" xmlns="http://www.w3.org/2000/svg" xmlns:xlink="http://www.w3.org/1999/xlink"><linearGradient id="a"><stop offset="0" stop-color="#ffe900"/><stop offset=".2" stop-color="#feb500"/><stop offset=".4" stop-color="#fd8b00"/><stop offset=".58" stop-color="#fd6d00"/><stop offset=".73" stop-color="#fc5b00"/><stop offset=".83" stop-color="#fc5400"/></linearGradient><linearGradient id="b" gradientTransform="matrix(1 0 0 -1 0 618.38)" gradientUnits="userSpaceOnUse" x1="29.4527" x2="487.6559" xlink:href="#a" y1="112.2017" y2="294.1345"/><linearGradient id="c" gradientTransform="matrix(1 0 0 -1 0 618.38)" gradientUnits="userSpaceOnUse" x1="38.2522" x2="496.4555" xlink:href="#a" y1="90.0399" y2="271.9727"/><linearGradient id="d" gradientTransform="matrix(1 0 0 -1 0 618.38)" gradientUnits="userSpaceOnUse" x1="48.1382" x2="506.3685" xlink:href="#a" y1="65.1218" y2="247.0546"/><g fill="#fff"><path d="m144.42 309.94c.16 9.02-2.31 17.9-7.12 25.53-7.26 10.53-19.71 15.95-37.01 15.95-14.38 0-25.62-3.71-33.47-11.05-5.49-5.51-9.3-12.45-10.99-20.04-.21-.84.29-1.7 1.13-1.91.02 0 .04-.01.06-.01l29.46-6.09c.8-.17 1.6.32 1.81 1.11 1.16 5.54 6.01 9.55 11.67 9.64 6.5-.03 11.75-5.31 11.75-11.81 0-6.25-4.85-8.31-22.8-16.06l-1.49-.65c-8.48-3.49-30.92-12.78-30.92-37.15 0-25.97 22.83-39.99 44.3-39.99 6.64-.01 13.21 1.27 19.36 3.76 5.42 2.36 17.14 8.91 19.44 22.61.12.81-.38 1.58-1.16 1.79l-27.35 6.82c-.73.18-1.48-.18-1.79-.87-1.53-3.82-5.41-6.17-9.5-5.77-5.54-.31-10.28 3.94-10.58 9.48v.08c0 5.55 3.41 7.15 25.64 17.38 21.25 9.85 29.56 20.27 29.56 37.25z"/><path d="m182.73 221.59v125.94c0 .88-.71 1.6-1.6 1.6-.01 0-.02 0-.03 0h-29.62c-.88.02-1.61-.69-1.62-1.57 0-.01 0-.02 0-.03v-125.94c0-.9.73-1.62 1.62-1.62h29.62c.91-.01 1.63.72 1.63 1.62z"/><path d="m277.04 309.94c.16 9.02-2.31 17.9-7.12 25.53-7.26 10.61-19.71 16-37.01 16-14.38 0-25.62-3.71-33.47-11.05-5.49-5.51-9.3-12.45-10.99-20.04-.21-.84.29-1.7 1.13-1.91.02 0 .04-.01.06-.01l29.46-6.09c.8-.17 1.6.32 1.81 1.11 1.16 5.54 6.01 9.55 11.67 9.64 6.5-.03 11.75-5.31 11.75-11.81 0-6.25-4.85-8.31-22.8-16.06l-1.49-.65c-8.45-3.49-30.92-12.78-30.92-37.15 0-25.97 22.83-39.99 44.3-39.99 6.64-.01 13.21 1.27 19.36 3.76 5.42 2.36 17.14 8.91 19.44 22.61.14.81-.37 1.59-1.16 1.79l-27.35 6.82c-.73.18-1.48-.18-1.79-.87-1.53-3.82-5.41-6.17-9.5-5.77-5.54-.31-10.28 3.94-10.58 9.48v.08c0 5.55 3.41 7.15 25.64 17.38 21.28 9.8 29.56 20.22 29.56 37.2z"/><path d="m423.29 349.07h-28.67c-.81-.01-1.47-.63-1.54-1.44l-6.04-65.45c-.11-.86-.89-1.47-1.75-1.37-.58.07-1.08.46-1.28 1.02l-21.17 66.12c-.21.65-.81 1.1-1.49 1.11h-19.58c-.69 0-1.3-.45-1.49-1.11l-21.17-66.12c-.27-.83-1.15-1.28-1.98-1.01-.6.19-1.03.73-1.08 1.36l-6.05 65.45c-.06.81-.73 1.44-1.54 1.44h-28.65c-.88-.01-1.59-.73-1.58-1.62 0-.05 0-.1.01-.14l16.25-126.21c.1-.78.76-1.37 1.54-1.38h33.14c.68.01 1.28.46 1.49 1.11l19.69 64.01c.22.82 1.07 1.31 1.89 1.08.53-.14.94-.56 1.08-1.08l18.95-63.96c.18-.67.79-1.14 1.49-1.14h33.31c.79 0 1.46.59 1.54 1.38l16.25 126.18c.1.86-.51 1.64-1.37 1.75-.07.01-.13.02-.2.02z"/><path d="m556.86 284.38c0 37.48-29.79 67.94-66.37 67.94s-66.34-30.46-66.34-67.94 29.79-67.91 66.34-67.91 66.37 30.46 66.37 67.91zm-30.05 0c-.52-20.05-17.2-35.87-37.25-35.35s-35.87 17.2-35.35 37.25c.51 19.65 16.57 35.33 36.23 35.36 20.31-.22 36.59-16.86 36.37-37.17 0-.03 0-.06 0-.09z"/></g><path d="m237.29 554.12c.01 6.66-.95 13.3-2.84 19.69-5.12 17.43-17.04 32.06-33.06 40.62-9.37 5.01-19.84 7.62-30.46 7.61-36.58 0-66.34-30.46-66.34-67.91s29.79-67.94 66.34-67.94c10.62-.03 21.08 2.57 30.46 7.55 8 4.27 15.05 10.11 20.74 17.17.76.94.61 2.32-.33 3.08-.02.02-.05.04-.07.06l-21.28 15.89c-.67.5-1.62.39-2.17-.24-6.84-8.01-16.82-12.64-27.35-12.7-20.5.55-36.66 17.62-36.11 38.11.53 19.72 16.39 35.57 36.11 36.11 11.45.01 22.22-5.46 28.95-14.73.52-.67.4-1.64-.27-2.17-.28-.22-.62-.33-.98-.33h-31c-.9 0-1.62-.73-1.62-1.62 0-.01 0-.02 0-.03v-24.78c0-.88.71-1.6 1.6-1.6h.03 67.56c.86-.02 1.58.63 1.65 1.49.2 1.77.45 4.7.44 6.67z" fill="#fc5400"/><path d="m337.59 491.03v76.14c0 22.01-5.01 31.57-13.11 39.83-9.05 9.54-21.79 14.69-34.93 14.13-7.39 0-24.37-1.35-35.96-14.03-11.18-12.27-13.05-22.23-13.05-39.94v-76.14c0-.85.69-1.54 1.54-1.54h29.79c.86 0 1.56.69 1.57 1.54v76.14c-.23 4.85.47 9.7 2.06 14.3 2.69 5.01 8.08 7.97 13.76 7.55 6.2 0 11.7-2.25 13.54-6.88 1.56-4.83 2.19-9.91 1.87-14.97v-76.14c.03-.87.75-1.55 1.62-1.52h.03 29.79c.81.06 1.45.72 1.48 1.53z" fill="#fc5400"/><path d="m378.75 490.98v125.8c0 .9-.73 1.62-1.62 1.62h-29.65c-.9 0-1.62-.73-1.62-1.62v-125.91c0-.9.73-1.62 1.62-1.62h29.65c.9 0 1.63.72 1.63 1.62-.01.03-.01.07-.01.11z" fill="#fc5400"/><path d="m506.44 618.95h-31.92c-.85 0-1.6-.55-1.87-1.35l-6.58-20.42c-.22-.65-.83-1.1-1.52-1.11h-39.64c-.71 0-1.33.46-1.54 1.14l-6.8 20.63c-.22.65-.83 1.1-1.52 1.11h-32.2c-.9-.02-1.61-.77-1.58-1.67 0-.17.04-.34.09-.5l47.47-125.99c.3-.78 1.06-1.3 1.9-1.3h28c.75.01 1.41.47 1.68 1.16l47.52 126.13c.31.82-.1 1.75-.92 2.06-.18.07-.37.11-.57.11zm-50.28-51.45-9.94-30.14c-.3-.86-1.25-1.31-2.11-1.01-.47.17-.84.54-1.01 1.01l-9.96 30.19c-.27.84.19 1.74 1.03 2.01.16.05.32.08.48.08h19.96c.9 0 1.63-.73 1.63-1.62.01-.18-.02-.35-.08-.52z" fill="#fc5400"/><path d="m275.99 416.19h-10.83l-7.37-33.17c-.51-2.18-2.7-3.54-4.88-3.02-1.5.35-2.67 1.52-3.02 3.02l-12.73 57.76-11.67-37.91c-.63-2.12-2.85-3.34-4.98-2.71-1.08.32-1.98 1.08-2.47 2.09l-6.99 13.92h-14.35c-2.24-6.31-9.18-9.61-15.49-7.37s-9.61 9.18-7.37 15.49 9.18 9.61 15.49 7.37c3.44-1.22 6.15-3.93 7.37-7.37h16.87c1.53.01 2.92-.86 3.6-2.22l3.57-7.15 13.19 42.86c.51 1.7 2.07 2.86 3.85 2.87h.16c1.83-.08 3.39-1.38 3.79-3.17l12.21-54.94 4.14 18.6c.41 1.84 2.04 3.15 3.93 3.14h14c-.53-2.66-.54-5.41-.02-8.09z" fill="url(#b)"/><path d="m342.79 416.19h-13.11l-7.37-33.17c-.48-2.18-2.63-3.55-4.81-3.07-1.53.34-2.73 1.54-3.07 3.07l-12.83 57.76-11.53-37.91c-.53-1.52-1.91-2.58-3.52-2.71-1.65-.15-3.22.73-3.95 2.22l-6.96 13.92h-12.32c.35 1.84.62 3.71.95 5.61.13.81.19 1.64.19 2.46h13.67c1.53.01 2.92-.86 3.6-2.22l3.57-7.15 13.19 42.86c.53 1.7 2.09 2.86 3.87 2.87h.16c1.83-.08 3.37-1.38 3.76-3.17l12.21-54.94 4.14 18.6c.42 1.84 2.06 3.15 3.95 3.14h16.25c-.58-2.68-.59-5.47-.04-8.17z" fill="url(#c)"/><path d="m427.32 408.12c-5.13.03-9.7 3.28-11.4 8.12h-13.54l-7.37-33.17c-.48-2.18-2.63-3.55-4.81-3.07-1.53.34-2.73 1.54-3.07 3.07l-12.94 57.7-11.64-37.91c-.54-1.53-1.93-2.59-3.55-2.71-1.64-.14-3.2.74-3.93 2.22l-6.96 13.92h-12.31c.35 1.84.62 3.71.95 5.61.13.81.19 1.64.19 2.46h13.67c1.53.01 2.92-.86 3.6-2.22l3.57-7.15 13.19 42.86c.51 1.71 2.09 2.87 3.87 2.87h.16c1.83-.08 3.37-1.38 3.76-3.17l12.21-54.94 4.14 18.6c.42 1.83 2.05 3.14 3.93 3.14h16.87c2.29 6.28 9.23 9.52 15.52 7.23 6.28-2.29 9.52-9.23 7.23-15.52-1.73-4.75-6.26-7.93-11.34-7.94zm0 16.25c-2.23-.01-4.02-1.83-4.01-4.06s1.83-4.02 4.06-4.01c2.22.01 4.01 1.82 4.01 4.03-.06 2.2-1.86 3.94-4.06 3.93z" fill="url(#d)"/><ellipse cx="166.3" cy="186.93" fill="#fc5400" rx="16.44" ry="16.44" transform="matrix(.1602 -.9871 .9871 .1602 -44.8533 321.1354)"/></svg>